<svg xmlns="http://www.w3.org/2000/svg" viewBox="0 0 512 512">
  <defs>
    <linearGradient id="grad1" x1="0%" y1="0%" x2="100%" y2="100%">
      <stop offset="0%" style="stop-color:#0ea5e9;stop-opacity:1" />
      <stop offset="100%" style="stop-color:#3b82f6;stop-opacity:1" />
    </linearGradient>
  </defs>
  <rect width="512" height="512" rx="128" fill="url(#grad1)" />
  <path d="M128 352h256v64H128z" fill="#fff" opacity="0.3"/>
  <path d="M160 352V224l96-64 96 64v128H160zm32-108v86h32v-86l-32-20zm64-42v128h32V202l-32-20zm64 42v86h32v-86l-32-20z" fill="#fff"/>
  <circle cx="350" cy="150" r="32" fill="#fff" opacity="0.8"/>
  <path d="M350 150l-20 20M350 150l20 -20M350 150l20 20M350 150l-20 -20" stroke="#0ea5e9" stroke-width="8"/>
</svg>
